# xmcd CD database file
#
# Track frame offsets:
#	150
#	15195
#	60695
#	74790
#	85100
#	95917
#	109960
#	124105
#	138130
#	150592
#	162537
#	176065
#	190835
#	207522
#	219475
#	235095
#	250495
#	263477
#	275857
#	290827
#
# Disc length: 4056 seconds
#
# Revision: 0
# Processed by: cddbd v1.4PL0 Copyright (c) Steve Scherf et al.
# Submitted via: CDex 1.50Beta7
#
DISCID=350fd614
DTITLE=Stan Kenton - Early Concepts
DYEAR=1900
DGENRE=Jazz
TTITLE0=Artistry in Rhythm
TTITLE1=Suite for Saxophones
TTITLE2=Eager Beaver
TTITLE3=Harlem Folk Dance
TTITLE4=Opus A Dollar Three Eighty
TTITLE5=I'm Going Mad for a Pad
TTITLE6=And Her Tears Flowed like Wine
TTITLE7=Southern Scandal
TTITLE8=Tampico
TTITLE9=Artistry Jumps
TTITLE10=Painted Rhythm
TTITLE11=Body and Soul
TTITLE12=Easy Street
TTITLE13=Begin the Beguine
TTITLE14=I Surrender Dear
TTITLE15=Two Moose in a Caboose
TTITLE16=Tea for Two
TTITLE17=One Twenty
TTITLE18=Solitude
TTITLE19=I Never Thought I'd Sing the Blues
EXTD=
EXTT0=
EXTT1=
EXTT2=
EXTT3=
EXTT4=
EXTT5=
EXTT6=
EXTT7=
EXTT8=
EXTT9=
EXTT10=
EXTT11=
EXTT12=
EXTT13=
EXTT14=
EXTT15=
EXTT16=
EXTT17=
EXTT18=
EXTT19=
PLAYORDER=
